<?xml version="1.0" encoding="UTF-8"?>
<svg width="145px" height="214px" viewBox="0 0 145 214" version="1.1" xmlns="http://www.w3.org/2000/svg" xmlns:xlink="http://www.w3.org/1999/xlink">
    <title>Eco-score - Neutre</title>
    <g id="Page-1" stroke="none" stroke-width="1" fill="none" fill-rule="evenodd">
        <g id="Eco-score-N&amp;B---E-Copy" transform="translate(-225.000000, -314.000000)">
            <g id="Eco-score---Neutre" transform="translate(225.500000, 314.000000)">
                <rect id="Rectangle-Copy-4" stroke="#CCCCCC" stroke-width="2.5" x="1.25" y="1.25" width="141.5" height="211.5" rx="24"></rect>
                <g id="Eco-score-E" transform="translate(16.521302, 16.552893)" fill-rule="nonzero">
                    <g id="Group" transform="translate(0.000000, 106.879085)" fill="#CCCCCC">
                        <path d="M36.3483791,21.5692223 L8.23861264,21.5692223 C9.12628947,28.0788524 14.6996634,31.371206 20.193544,31.371206 C28.2709616,31.371206 32.3096704,27.4495293 32.3096704,27.4495293 L32.3096704,35.2906747 C32.3096704,35.2906747 28.2709616,39.2123514 20.193544,39.2123514 C8.07741759,39.2123514 0,31.371206 0,19.6061757 C0,7.84335355 8.07741759,0 18.1752936,0 C28.2731697,0 36.3505873,7.84114539 36.3505873,19.6061757 L36.3505873,21.5692223 L36.3483791,21.5692223 Z M8.47930113,15.6867071 L27.8646617,15.6867071 C26.7340882,10.4335151 23.0994711,7.8455617 18.1708773,7.8455617 C13.2422836,7.8455617 9.60987462,10.4335151 8.47930113,15.6867071 Z" id="Shape"></path>
                        <path d="M68.7662489,1.96304654 L68.7662489,9.80419193 C68.7662489,9.80419193 62.8837338,7.84335355 58.9642651,7.84335355 C53.08175,7.84335355 47.201443,11.7650303 47.201443,19.6061757 C47.201443,27.4473211 53.0839581,31.3689979 58.9642651,31.3689979 C62.8859419,31.3689979 68.7662489,29.4081595 68.7662489,29.4081595 L68.7662489,37.251513 C68.7662489,37.251513 64.8445721,39.2123514 58.9642651,39.2123514 C47.201443,39.2123514 39.3580894,31.371206 39.3580894,19.6061757 C39.3580894,7.84335355 47.201443,0 58.9642651,0 C64.8445721,0.00220815134 68.7662489,1.96304654 68.7662489,1.96304654 Z" id="Path"></path>
                        <path d="M110.957396,19.6083839 C110.957396,31.371206 103.114043,39.2145596 91.3512208,39.2145596 C79.5883986,39.2145596 71.7450451,31.3734142 71.7450451,19.6083839 C71.7450451,7.8455617 79.5883986,0.00220815134 91.3512208,0.00220815134 C103.116251,0.00220815134 110.957396,7.8455617 110.957396,19.6083839 Z M79.5883986,19.6083839 C79.5883986,27.4495293 85.4709138,31.371206 91.3512208,31.371206 C97.2337359,31.371206 103.114043,27.4495293 103.114043,19.6083839 C103.114043,11.7650303 97.2315278,7.8455617 91.3512208,7.8455617 C85.4709138,7.8455617 79.5883986,11.7650303 79.5883986,19.6083839 Z" id="Shape"></path>
                        <path d="M8.62283097,74.015129 C4.63049335,74.015129 0.638155736,72.6836137 0.638155736,72.6836137 L0.638155736,67.361969 C0.638155736,67.361969 4.63049335,68.6934842 8.62283097,68.6934842 C11.2836533,68.6934842 12.6151686,67.361969 12.6151686,66.0326619 C12.6151686,62.0403243 0.013248908,64.7011466 0.013248908,55.3871643 C0.013248908,50.0655196 3.30118625,47.4024891 8.62503912,47.4024891 C12.6173767,47.4024891 16.6097144,48.7340043 16.6097144,48.7340043 L16.6097144,54.055649 C16.6097144,54.055649 12.6173767,52.7241338 8.62503912,52.7241338 C5.96421676,52.7241338 4.6327015,54.055649 4.6327015,55.3849561 C4.6327015,59.3772937 17.9390215,56.7164714 17.9390215,66.0304537 C17.9368133,71.3543066 13.9466838,74.015129 8.62283097,74.015129 Z" id="Path"></path>
                        <path d="M39.4949948,48.7340043 L39.4949948,54.055649 C39.4949948,54.055649 35.5026572,52.7241338 32.8418348,52.7241338 C28.8494972,52.7241338 24.8571596,55.3849561 24.8571596,60.708809 C24.8571596,66.0304537 28.8494972,68.6934842 32.8418348,68.6934842 C35.5026572,68.6934842 39.4949948,67.361969 39.4949948,67.361969 L39.4949948,72.6836137 C39.4949948,72.6836137 36.8341724,74.015129 32.8418348,74.015129 C24.8571596,74.015129 19.5355149,68.6934842 19.5355149,60.708809 C19.5355149,52.7241338 24.8571596,47.4024891 32.8418348,47.4024891 C36.8319643,47.4024891 39.4949948,48.7340043 39.4949948,48.7340043 Z" id="Path"></path>
                        <path d="M68.2892882,60.708809 C68.2892882,68.6934842 62.9676435,74.015129 54.9829683,74.015129 C46.998293,74.015129 41.6766483,68.6934842 41.6766483,60.708809 C41.6766483,52.7241338 46.998293,47.4024891 54.9829683,47.4024891 C62.9676435,47.4024891 68.2892882,52.7241338 68.2892882,60.708809 Z M46.998293,60.708809 C46.998293,66.0304537 50.9906307,68.6934842 54.9829683,68.6934842 C58.9753059,68.6934842 62.9676435,66.0326619 62.9676435,60.708809 C62.9676435,55.3871643 58.9753059,52.7241338 54.9829683,52.7241338 C50.9906307,52.7241338 46.998293,55.3871643 46.998293,60.708809 Z" id="Shape"></path>
                        <path d="M86.5462835,47.4024891 L86.5462835,52.7241338 C81.2246387,52.7241338 75.9007859,54.055649 75.9007859,60.708809 L75.9007859,74.015129 L70.5791412,74.015129 L70.5791412,47.4024891 L75.9007859,47.4024891 L75.9007859,58.0479866 C75.9007859,51.3948267 79.8931235,47.4024891 86.5462835,47.4024891 Z" id="Path"></path>
                        <path d="M110.763079,62.0403243 L92.2411058,62.0403243 C92.8262659,66.4588351 96.4984215,68.6934842 100.117582,68.6934842 C105.439226,68.6934842 108.102257,66.0326619 108.102257,66.0326619 L108.102257,71.3543066 C108.102257,71.3543066 105.441434,74.015129 100.117582,74.015129 C92.1329064,74.015129 86.8112616,68.6934842 86.8112616,60.708809 C86.8112616,52.7241338 92.1329064,47.4024891 98.7860663,47.4024891 C105.439226,47.4024891 110.760871,52.7241338 110.760871,60.708809 L110.760871,62.0403243 L110.763079,62.0403243 Z M92.4000927,58.0479866 L105.174248,58.0479866 C104.427893,54.4818222 102.034257,52.7263419 98.7882745,52.7263419 C95.542292,52.7263419 93.1464478,54.4818222 92.4000927,58.0479866 Z" id="Shape"></path>
                    </g>
                    <g id="leaf" transform="translate(7.464190, 0.000000)" fill="#D4D4D4">
                        <path d="M92.6043467,0.00903678281 C94.3143391,-0.134272239 95.9004542,1.4494139 95.7547162,3.15940629 C95.5433961,5.59565966 92.5120459,60.9542345 74.7951645,78.6711159 C57.8142599,95.6495915 37.8092921,91.6660865 24.7438814,82.2732732 C24.5859986,82.1591118 24.4086841,82.0230896 24.2143667,81.8676358 L12.4387373,93.6286914 C9.59198859,96.4730112 4.97938126,96.4730112 2.13506153,93.6286914 C-0.711687176,90.7819427 -0.711687176,86.1693354 2.13506153,83.3250157 L13.8985461,71.5493862 C13.7406633,71.3526399 13.6046412,71.1753254 13.4904798,71.0174426 C4.1000954,57.9544609 0.114161424,37.9470641 17.092637,20.9661595 C34.8046605,3.24927805 90.1656643,0.215498933 92.6043467,0.00903678281 Z"></path>
                    </g>
                </g>
            </g>
        </g>
    </g>
</svg>